<?xml version="1.0" encoding="iso-8859-1"?>
<!-- Generator: Adobe Illustrator 19.0.0, SVG Export Plug-In . SVG Version: 6.00 Build 0)  -->
<svg version="1.1" id="Layer_1" xmlns="http://www.w3.org/2000/svg" xmlns:xlink="http://www.w3.org/1999/xlink" x="0px" y="0px"
	 viewBox="0 0 512 512" style="enable-background:new 0 0 512 512;" xml:space="preserve">
<g>
	<g>
		<path d="M461.041,9.85C460.855,4.356,456.346,0,450.848,0h-62.71c-5.497,0-10.006,4.357-10.193,9.851l-10.66,311.99
			l-154.262-90.867c-3.155-1.858-7.061-1.884-10.237-0.067c-3.177,1.816-5.138,5.195-5.138,8.855v78.46L49.53,230.974
			c-3.155-1.858-7.06-1.884-10.237-0.067s-5.138,5.195-5.138,8.855v262.039c0,5.633,4.567,10.199,10.199,10.199h423.292
			c2.765,0,5.413-1.123,7.333-3.112c1.923-1.989,2.954-4.672,2.86-7.436L461.041,9.85z M54.552,257.607l115.884,68.261H54.552
			V257.607z M197.648,491.602H54.552V346.266h143.096V491.602z M218.046,257.607l115.884,68.261H218.046V257.607z M361.142,491.602
			H218.046V346.266h143.096V491.602z M397.995,20.398h42.997l0.489,14.317h-43.974L397.995,20.398z M396.81,55.113h45.368
			l0.566,16.555h-46.5L396.81,55.113z M381.896,491.602l13.652-399.534h47.894l13.651,399.534H381.896z"/>
	</g>
</g>
<g>
	<g>
		<path d="M163.054,460.246h-3.36c-5.632,0-10.199,4.566-10.199,10.199c0,5.633,4.567,10.199,10.199,10.199h3.36
			c5.632,0,10.199-4.566,10.199-10.199C173.253,464.812,168.687,460.246,163.054,460.246z"/>
	</g>
</g>
<g>
	<g>
		<path d="M122.741,460.246H75.708c-5.632,0-10.199,4.566-10.199,10.199c0,5.633,4.567,10.199,10.199,10.199h47.032
			c5.632,0,10.199-4.566,10.199-10.199C132.939,464.812,128.373,460.246,122.741,460.246z"/>
	</g>
</g>
<g>
</g>
<g>
</g>
<g>
</g>
<g>
</g>
<g>
</g>
<g>
</g>
<g>
</g>
<g>
</g>
<g>
</g>
<g>
</g>
<g>
</g>
<g>
</g>
<g>
</g>
<g>
</g>
<g>
</g>
</svg>
